<svg width="168" height="55" viewBox="0 0 168 55" fill="none" xmlns="http://www.w3.org/2000/svg">
<g clip-path="url(#clip0_5_2322)">
<g clip-path="url(#clip1_5_2322)">
<path d="M80.5719 30.6943C79.7489 30.6943 79.1545 30.5697 78.7887 30.3207C78.4229 30.0489 78.1943 29.7092 78.1029 29.3016C78.0343 28.8714 78 28.4298 78 27.9769V9.56658C78 9.11368 78.0343 8.69475 78.1029 8.30978C78.1943 7.90217 78.4229 7.57382 78.7887 7.32473C79.1545 7.05299 79.7603 6.91712 80.6062 6.91712H89.1447C90.4935 6.91712 91.6938 7.23415 92.7454 7.86821C93.797 8.50226 94.6314 9.35145 95.2486 10.4158C95.8659 11.4801 96.1631 12.635 96.1402 13.8804C96.1631 14.3786 96.1174 14.8655 96.0031 15.341C95.8887 15.8166 95.7173 16.2808 95.4887 16.7337C95.2829 17.1639 95.02 17.5602 94.7 17.9226C95.1801 18.3755 95.5801 18.8963 95.9002 19.4851C96.2202 20.0512 96.4603 20.6513 96.6203 21.2853C96.8032 21.9194 96.8946 22.5648 96.8946 23.2215C96.8718 24.2631 96.666 25.2482 96.2774 26.1766C95.9116 27.0824 95.3858 27.875 94.7 28.5543C94.0141 29.2111 93.2254 29.7319 92.3339 30.1168C91.4423 30.5018 90.4935 30.6943 89.4877 30.6943H80.5719ZM83.2123 25.5652H89.1447C89.5334 25.5652 89.922 25.4973 90.3107 25.3614C90.7222 25.2029 91.0536 24.9312 91.3051 24.5462C91.5794 24.1386 91.7166 23.5725 91.7166 22.8478C91.7166 22.3723 91.6595 21.976 91.5452 21.659C91.4309 21.3419 91.2708 21.1042 91.0651 20.9457C90.8593 20.7645 90.6307 20.6399 90.3792 20.572C90.1278 20.5041 89.8649 20.4588 89.5905 20.4361C89.3162 20.4135 89.0533 20.4022 88.8018 20.4022H87.8074C87.0301 20.4022 86.4814 20.2437 86.1614 19.9266C85.8413 19.587 85.6813 19.0095 85.6813 18.1943C85.6813 17.4017 85.8528 16.8469 86.1957 16.5299C86.5615 16.2129 87.133 16.0543 87.9103 16.0543H88.9047C89.1333 16.0543 89.3734 16.043 89.6248 16.0204C89.8763 15.9977 90.0935 15.9298 90.2764 15.8166C90.4821 15.7034 90.6421 15.5222 90.7565 15.2731C90.8936 15.0014 90.9622 14.639 90.9622 14.1861C90.9622 13.4162 90.7679 12.8727 90.3792 12.5557C89.9906 12.216 89.3048 12.0462 88.3218 12.0462H83.2123V25.5652Z" fill="#372121"/>
<path d="M113.123 30.6603C112.278 30.6603 111.649 30.5131 111.237 30.2187C110.849 29.9244 110.654 29.562 110.654 29.1318L110.997 28.5543C110.86 28.7808 110.597 29.0639 110.209 29.4035C109.82 29.7206 109.317 30.0149 108.7 30.2867C108.083 30.5358 107.317 30.6603 106.402 30.6603C105.351 30.6603 104.345 30.4339 103.385 29.981C102.447 29.5281 101.613 28.9053 100.881 28.1128C100.15 27.2976 99.5667 26.3804 99.1323 25.3614C98.7208 24.3424 98.5151 23.2668 98.5151 22.1345C98.5151 21.0249 98.7208 19.9719 99.1323 18.9755C99.5667 17.9565 100.15 17.062 100.881 16.2921C101.636 15.4995 102.482 14.8768 103.419 14.4239C104.356 13.971 105.351 13.7446 106.402 13.7446C107.248 13.7446 107.968 13.8691 108.563 14.1182C109.157 14.3447 109.648 14.6164 110.037 14.9334C110.449 15.2505 110.757 15.5562 110.963 15.8505L110.689 15.375C110.666 14.8315 110.849 14.4239 111.237 14.1522C111.649 13.8578 112.289 13.7106 113.158 13.7106C113.981 13.7106 114.564 13.8351 114.907 14.0842C115.272 14.3333 115.489 14.6617 115.558 15.0693C115.65 15.4769 115.695 15.9072 115.695 16.3601V28.0788C115.695 28.5091 115.65 28.928 115.558 29.3356C115.489 29.7432 115.272 30.0716 114.907 30.3207C114.564 30.5471 113.969 30.6603 113.123 30.6603ZM107.157 25.5992C107.751 25.5992 108.288 25.452 108.768 25.1576C109.271 24.8406 109.66 24.4216 109.934 23.9008C110.231 23.38 110.38 22.8025 110.38 22.1685C110.38 21.5118 110.231 20.9343 109.934 20.4361C109.637 19.9153 109.237 19.5077 108.734 19.2133C108.231 18.8963 107.682 18.7378 107.088 18.7378C106.425 18.7378 105.831 18.8963 105.305 19.2133C104.802 19.5303 104.39 19.9493 104.07 20.4701C103.773 20.9909 103.625 21.5797 103.625 22.2364C103.625 22.8478 103.773 23.4139 104.07 23.9348C104.39 24.433 104.813 24.8406 105.339 25.1576C105.888 25.452 106.494 25.5992 107.157 25.5992Z" fill="#372121"/>
<path d="M127.645 30.6603C126.525 30.6603 125.53 30.4339 124.662 29.981C123.816 29.5054 123.107 28.8714 122.536 28.0788C121.987 27.2862 121.564 26.3804 121.267 25.3614C120.992 24.3424 120.867 23.2554 120.89 22.1005C120.89 20.9909 121.038 19.9266 121.335 18.9076C121.633 17.8886 122.056 16.9941 122.604 16.2242C123.176 15.4543 123.873 14.8542 124.696 14.4239C125.542 13.971 126.525 13.7446 127.645 13.7446C128.651 13.7446 129.623 13.971 130.56 14.4239C131.52 14.8768 132.366 15.4995 133.097 16.2921C133.829 17.062 134.4 17.9565 134.812 18.9755C135.246 19.9719 135.463 21.0249 135.463 22.1345C135.463 23.2894 135.246 24.3877 134.812 25.4293C134.4 26.4484 133.829 27.3542 133.097 28.1467C132.366 28.9393 131.531 29.562 130.594 30.0149C129.657 30.4452 128.674 30.6603 127.645 30.6603ZM126.925 25.6332C127.565 25.6332 128.137 25.486 128.639 25.1916C129.142 24.8745 129.542 24.4556 129.84 23.9348C130.16 23.4139 130.32 22.8365 130.32 22.2024C130.32 21.5457 130.171 20.9683 129.874 20.4701C129.577 19.9493 129.177 19.5417 128.674 19.2473C128.171 18.9529 127.599 18.8057 126.959 18.8057C126.342 18.8057 125.77 18.9529 125.245 19.2473C124.742 19.5417 124.342 19.9493 124.044 20.4701C123.77 20.9683 123.633 21.5457 123.633 22.2024C123.633 22.8365 123.782 23.4139 124.079 23.9348C124.376 24.4556 124.776 24.8745 125.279 25.1916C125.782 25.486 126.331 25.6332 126.925 25.6332ZM120.958 30.6943C120.135 30.6943 119.541 30.5697 119.175 30.3207C118.809 30.0716 118.581 29.7545 118.489 29.3696C118.421 28.962 118.386 28.543 118.386 28.1128V8.58152C118.386 8.10598 118.432 7.67573 118.523 7.29076C118.615 6.9058 118.832 6.60009 119.175 6.37364C119.541 6.12455 120.147 6 120.992 6C121.815 6 122.398 6.12455 122.741 6.37364C123.084 6.62274 123.29 6.95109 123.359 7.3587C123.427 7.74366 123.45 8.15127 123.427 8.58152V29.1658C123.313 29.6866 123.073 30.0716 122.707 30.3207C122.341 30.5697 121.758 30.6943 120.958 30.6943Z" fill="#372121"/>
<path d="M146.282 31C144.681 31 143.298 30.7396 142.132 30.2187C140.989 29.6979 140.052 29.0186 139.32 28.1807C138.589 27.3202 138.04 26.3691 137.674 25.3274C137.332 24.2858 137.16 23.2441 137.16 22.2024C137.16 20.5041 137.549 18.9982 138.326 17.6848C139.103 16.3714 140.178 15.341 141.549 14.5938C142.921 13.8238 144.499 13.4389 146.282 13.4389C147.608 13.4389 148.751 13.654 149.711 14.0842C150.694 14.4918 151.494 15.0353 152.111 15.7147C152.751 16.3714 153.22 17.0847 153.517 17.8546C153.837 18.6245 153.997 19.3605 153.997 20.0625C153.997 21.308 153.689 22.2364 153.071 22.8478C152.477 23.4366 151.711 23.731 150.774 23.731H142.612C142.658 24.3197 142.864 24.8179 143.23 25.2255C143.618 25.6332 144.098 25.9502 144.67 26.1766C145.241 26.4031 145.847 26.5163 146.487 26.5163C147.036 26.5163 147.516 26.4937 147.928 26.4484C148.339 26.3804 148.694 26.3012 148.991 26.2106C149.288 26.0974 149.562 25.9955 149.814 25.9049C150.065 25.7917 150.282 25.7011 150.465 25.6332C150.671 25.5652 150.865 25.5199 151.048 25.4973C151.391 25.4746 151.7 25.5765 151.974 25.803C152.271 26.0068 152.534 26.3238 152.763 26.7541C152.923 27.0032 153.026 27.2409 153.071 27.4674C153.14 27.6938 153.174 27.9203 153.174 28.1467C153.174 28.6902 152.889 29.1771 152.317 29.6073C151.768 30.0376 150.98 30.3773 149.951 30.6264C148.945 30.8755 147.722 31 146.282 31ZM142.612 20.9457H148.031C148.396 20.9457 148.659 20.889 148.819 20.7758C149.002 20.6399 149.094 20.3909 149.094 20.0285C149.094 19.6209 148.968 19.2699 148.716 18.9755C148.465 18.6585 148.122 18.4207 147.688 18.2622C147.276 18.0811 146.796 17.9905 146.247 17.9905C145.539 17.9905 144.91 18.1264 144.361 18.3981C143.813 18.6698 143.378 19.0322 143.058 19.4851C142.761 19.938 142.612 20.4248 142.612 20.9457Z" fill="#372121"/>
<path d="M164.674 30.6943C163.508 30.6943 162.502 30.5697 161.656 30.3207C160.833 30.0716 160.147 29.6866 159.599 29.1658C159.05 28.6449 158.638 27.9882 158.364 27.1957C158.113 26.3804 157.987 25.418 157.987 24.3084V10.5177C157.987 10.0648 158.021 9.65716 158.09 9.29484C158.181 8.93252 158.41 8.63813 158.776 8.41169C159.141 8.16259 159.736 8.03804 160.559 8.03804C161.382 8.03804 161.976 8.16259 162.342 8.41169C162.708 8.66078 162.925 8.97781 162.993 9.36277C163.085 9.74774 163.131 10.1667 163.131 10.6196V24.1046C163.131 24.4669 163.153 24.7726 163.199 25.0217C163.268 25.2482 163.359 25.418 163.474 25.5312C163.588 25.6445 163.748 25.7237 163.954 25.769C164.159 25.8143 164.411 25.837 164.708 25.837C165.211 25.837 165.657 25.8822 166.045 25.9728C166.434 26.0634 166.731 26.2672 166.937 26.5842C167.166 26.9013 167.28 27.4334 167.28 28.1807C167.28 28.9959 167.154 29.5847 166.903 29.947C166.651 30.3093 166.32 30.5245 165.908 30.5924C165.52 30.6603 165.108 30.6943 164.674 30.6943ZM156.924 13.9823H160.696L165.428 13.8465C165.862 13.8465 166.274 13.8918 166.663 13.9823C167.051 14.0503 167.371 14.2654 167.623 14.6277C167.874 14.99 168 15.5901 168 16.428C168 17.1979 167.874 17.764 167.623 18.1264C167.394 18.4887 167.086 18.7264 166.697 18.8397C166.308 18.9303 165.885 18.9755 165.428 18.9755L160.936 18.8736H156.787C156.124 18.851 155.655 18.6585 155.381 18.2962C155.129 17.9112 155.004 17.2772 155.004 16.394C155.004 15.5788 155.164 14.9787 155.484 14.5938C155.804 14.1861 156.284 13.9823 156.924 13.9823Z" fill="#372121"/>
<path d="M158.309 53.9942V55H87.6908V53.9942H158.309ZM167.025 45C167.025 40.0327 163.123 36.0058 158.309 36.0058H87.6908C82.8771 36.0058 78.9747 40.0327 78.9747 45C78.9748 49.9673 82.8771 53.9942 87.6908 53.9942V55L87.4408 54.9967C82.2874 54.8621 78.1337 50.5758 78.0032 45.258L78 45C78 39.5635 82.2041 35.1403 87.4405 35.0033L87.6908 35H158.309L158.56 35.0033C163.796 35.1403 168 39.5635 168 45L167.997 45.258C167.866 50.5757 163.713 54.8619 158.56 54.9967L158.309 55V53.9942C163.123 53.9942 167.025 49.9673 167.025 45Z" fill="#372121"/>
<path d="M88.737 48.0054C88.4978 48.0054 88.3265 47.97 88.223 47.8994C88.1261 47.8287 88.0646 47.7355 88.0388 47.6199C88.0129 47.5043 88 47.3854 88 47.2634V42.0021C88 41.8801 88.0129 41.7645 88.0388 41.6552C88.0646 41.5396 88.1293 41.4465 88.2327 41.3758C88.3362 41.3051 88.5075 41.2698 88.7467 41.2698H90.7347C91.0062 41.2698 91.2777 41.318 91.5493 41.4143C91.8273 41.5107 92.0826 41.6617 92.3154 41.8672C92.5546 42.0664 92.7453 42.3137 92.8875 42.6092C93.0362 42.9047 93.1106 43.2516 93.1106 43.6499C93.1106 44.0418 93.0362 44.3854 92.8875 44.6809C92.7453 44.9764 92.5546 45.2238 92.3154 45.4229C92.0826 45.6156 91.8273 45.7634 91.5493 45.8662C91.2713 45.9625 90.9965 46.0107 90.725 46.0107H89.4837V47.273C89.4837 47.3951 89.4708 47.5139 89.4449 47.6296C89.4191 47.7388 89.3544 47.8287 89.251 47.8994C89.1475 47.97 88.9762 48.0054 88.737 48.0054ZM89.4837 44.546H90.7347C90.8769 44.546 91.0159 44.5171 91.1517 44.4593C91.2939 44.3951 91.4103 44.2955 91.5008 44.1606C91.5978 44.0257 91.6462 43.8522 91.6462 43.6403C91.6462 43.4604 91.6074 43.303 91.5299 43.1681C91.4523 43.0332 91.3424 42.9272 91.2002 42.8501C91.0644 42.773 90.906 42.7345 90.725 42.7345H89.4837V44.546Z" fill="#372121"/>
<path d="M96.1427 48.0921C95.6902 48.0921 95.2991 48.0182 94.9694 47.8704C94.6461 47.7227 94.381 47.53 94.1742 47.2923C93.9673 47.0482 93.8121 46.7784 93.7087 46.4829C93.6117 46.1874 93.5632 45.8919 93.5632 45.5964C93.5632 45.1146 93.6731 44.6874 93.8929 44.3148C94.1127 43.9422 94.4166 43.6499 94.8045 43.4379C95.1924 43.2195 95.6385 43.1103 96.1427 43.1103C96.5177 43.1103 96.841 43.1713 97.1125 43.2934C97.3905 43.409 97.6168 43.5632 97.7913 43.7559C97.9723 43.9422 98.1049 44.1445 98.1889 44.363C98.2794 44.5814 98.3247 44.7901 98.3247 44.9893C98.3247 45.3426 98.2374 45.606 98.0628 45.7794C97.8947 45.9465 97.6782 46.03 97.4131 46.03H95.1051C95.118 46.197 95.1762 46.3383 95.2797 46.454C95.3896 46.5696 95.5253 46.6595 95.687 46.7238C95.8486 46.788 96.0199 46.8201 96.2009 46.8201C96.3561 46.8201 96.4919 46.8137 96.6082 46.8009C96.7246 46.7816 96.8248 46.7591 96.9088 46.7334C96.9929 46.7013 97.0705 46.6724 97.1416 46.6467C97.2127 46.6146 97.2741 46.5889 97.3258 46.5696C97.384 46.5503 97.439 46.5375 97.4907 46.531C97.5877 46.5246 97.6749 46.5535 97.7525 46.6178C97.8366 46.6756 97.9109 46.7655 97.9756 46.8876C98.0208 46.9582 98.0499 47.0257 98.0628 47.0899C98.0822 47.1542 98.0919 47.2184 98.0919 47.2827C98.0919 47.4368 98.0111 47.5749 97.8495 47.697C97.6943 47.8191 97.4713 47.9154 97.1804 47.9861C96.8959 48.0567 96.55 48.0921 96.1427 48.0921ZM95.1051 45.2398H96.6373C96.7408 45.2398 96.8151 45.2238 96.8604 45.1916C96.9121 45.1531 96.9379 45.0824 96.9379 44.9797C96.9379 44.864 96.9024 44.7645 96.8313 44.6809C96.7601 44.591 96.6632 44.5236 96.5403 44.4786C96.424 44.4272 96.2882 44.4015 96.133 44.4015C95.9326 44.4015 95.7548 44.44 95.5997 44.5171C95.4445 44.5942 95.3217 44.697 95.2312 44.8255C95.1471 44.954 95.1051 45.0921 95.1051 45.2398Z" fill="#372121"/>
<path d="M101.344 48.0054C101.014 48.0054 100.73 47.97 100.491 47.8994C100.258 47.8287 100.064 47.7195 99.9086 47.5717C99.7534 47.424 99.6371 47.2377 99.5595 47.0128C99.4884 46.7816 99.4528 46.5086 99.4528 46.1938V42.2816C99.4528 42.1531 99.4625 42.0375 99.4819 41.9347C99.5078 41.8319 99.5724 41.7484 99.6758 41.6842C99.7793 41.6135 99.9474 41.5782 100.18 41.5782C100.413 41.5782 100.581 41.6135 100.684 41.6842C100.788 41.7548 100.849 41.8448 100.869 41.954C100.895 42.0632 100.908 42.182 100.908 42.3105V46.136C100.908 46.2388 100.914 46.3255 100.927 46.3961C100.946 46.4604 100.972 46.5086 101.004 46.5407C101.037 46.5728 101.082 46.5953 101.14 46.6081C101.198 46.621 101.27 46.6274 101.354 46.6274C101.496 46.6274 101.622 46.6403 101.732 46.666C101.842 46.6916 101.926 46.7495 101.984 46.8394C102.049 46.9293 102.081 47.0803 102.081 47.2923C102.081 47.5236 102.045 47.6906 101.974 47.7934C101.903 47.8961 101.809 47.9572 101.693 47.9764C101.583 47.9957 101.467 48.0054 101.344 48.0054ZM99.1522 43.2645H100.219L101.557 43.2259C101.68 43.2259 101.796 43.2388 101.906 43.2645C102.016 43.2837 102.107 43.3448 102.178 43.4475C102.249 43.5503 102.285 43.7206 102.285 43.9582C102.285 44.1767 102.249 44.3373 102.178 44.44C102.113 44.5428 102.026 44.6103 101.916 44.6424C101.806 44.6681 101.687 44.6809 101.557 44.6809L100.287 44.652H99.1134C98.9259 44.6456 98.7934 44.591 98.7158 44.4882C98.6447 44.379 98.6091 44.1991 98.6091 43.9486C98.6091 43.7173 98.6544 43.5471 98.7449 43.4379C98.8354 43.3223 98.9712 43.2645 99.1522 43.2645Z" fill="#372121"/>
<path d="M108.504 48.0824C108.219 48.0824 107.919 48.0375 107.602 47.9475C107.285 47.8576 106.975 47.7227 106.671 47.5428C106.367 47.363 106.089 47.1349 105.837 46.8587C105.591 46.576 105.394 46.2484 105.246 45.8758C105.103 45.4968 105.032 45.0664 105.032 44.5846C105.032 44.1221 105.103 43.7109 105.246 43.3512C105.394 42.985 105.591 42.667 105.837 42.3972C106.083 42.1274 106.358 41.9058 106.661 41.7323C106.965 41.5525 107.279 41.4208 107.602 41.3373C107.925 41.2473 108.232 41.2024 108.523 41.2024C108.853 41.2024 109.141 41.2409 109.386 41.318C109.632 41.3951 109.833 41.4754 109.988 41.5589C110.143 41.636 110.24 41.6906 110.279 41.7227C110.395 41.7934 110.505 41.8737 110.608 41.9636C110.712 42.0535 110.767 42.1724 110.773 42.3201C110.773 42.3972 110.757 42.4743 110.725 42.5514C110.699 42.6221 110.657 42.6991 110.599 42.7827C110.495 42.9304 110.395 43.0396 110.298 43.1103C110.207 43.1745 110.114 43.2066 110.017 43.2066C109.939 43.2066 109.865 43.1874 109.794 43.1488C109.729 43.1103 109.645 43.0589 109.542 42.9946C109.496 42.9625 109.432 42.924 109.348 42.879C109.264 42.8276 109.15 42.7827 109.008 42.7441C108.866 42.6991 108.685 42.6767 108.465 42.6767C108.239 42.6767 108.009 42.7184 107.777 42.8019C107.55 42.879 107.34 42.9979 107.146 43.1585C106.952 43.3191 106.797 43.5246 106.681 43.7752C106.564 44.0193 106.506 44.3051 106.506 44.6328C106.506 44.9732 106.564 45.2655 106.681 45.5096C106.804 45.7537 106.962 45.9561 107.156 46.1167C107.35 46.2773 107.56 46.3994 107.786 46.4829C108.019 46.56 108.245 46.5985 108.465 46.5985C108.659 46.5985 108.824 46.5792 108.96 46.5407C109.102 46.5021 109.222 46.4572 109.319 46.4058C109.422 46.348 109.509 46.2966 109.58 46.2516C109.651 46.2066 109.723 46.1649 109.794 46.1263C109.871 46.0878 109.949 46.0685 110.026 46.0685C110.117 46.0685 110.207 46.1039 110.298 46.1745C110.395 46.2452 110.492 46.3576 110.589 46.5118C110.647 46.5953 110.692 46.6788 110.725 46.7623C110.757 46.8394 110.77 46.9165 110.763 46.9936C110.763 47.1285 110.712 47.2409 110.608 47.3308C110.505 47.4143 110.395 47.4914 110.279 47.5621C110.227 47.5878 110.127 47.6456 109.978 47.7355C109.829 47.8191 109.632 47.8961 109.386 47.9668C109.141 48.0439 108.847 48.0824 108.504 48.0824Z" fill="#372121"/>
<path d="M115.176 47.9957C114.937 47.9957 114.759 47.954 114.643 47.8704C114.533 47.7869 114.478 47.6842 114.478 47.5621L114.575 47.3983C114.536 47.4625 114.462 47.5428 114.352 47.6392C114.242 47.7291 114.1 47.8126 113.925 47.8897C113.751 47.9604 113.534 47.9957 113.276 47.9957C112.978 47.9957 112.694 47.9315 112.422 47.803C112.157 47.6745 111.921 47.4979 111.714 47.273C111.507 47.0418 111.343 46.7816 111.22 46.4925C111.103 46.2034 111.045 45.8983 111.045 45.5771C111.045 45.2623 111.103 44.9636 111.22 44.6809C111.343 44.3919 111.507 44.1381 111.714 43.9197C111.928 43.6949 112.167 43.5182 112.432 43.3897C112.697 43.2612 112.978 43.197 113.276 43.197C113.515 43.197 113.718 43.2323 113.886 43.303C114.055 43.3672 114.194 43.4443 114.303 43.5343C114.42 43.6242 114.507 43.7109 114.565 43.7944L114.488 43.6595C114.481 43.5054 114.533 43.3897 114.643 43.3126C114.759 43.2291 114.94 43.1874 115.186 43.1874C115.419 43.1874 115.584 43.2227 115.681 43.2934C115.784 43.364 115.845 43.4572 115.865 43.5728C115.891 43.6884 115.904 43.8105 115.904 43.939V47.2634C115.904 47.3854 115.891 47.5043 115.865 47.6199C115.845 47.7355 115.784 47.8287 115.681 47.8994C115.584 47.9636 115.415 47.9957 115.176 47.9957ZM113.489 46.56C113.657 46.56 113.809 46.5182 113.945 46.4347C114.087 46.3448 114.197 46.2259 114.274 46.0782C114.358 45.9304 114.4 45.7666 114.4 45.5867C114.4 45.4004 114.358 45.2366 114.274 45.0953C114.19 44.9475 114.077 44.8319 113.935 44.7484C113.793 44.6585 113.638 44.6135 113.469 44.6135C113.282 44.6135 113.114 44.6585 112.965 44.7484C112.823 44.8383 112.707 44.9572 112.616 45.1049C112.532 45.2527 112.49 45.4197 112.49 45.606C112.49 45.7794 112.532 45.94 112.616 46.0878C112.707 46.2291 112.826 46.3448 112.975 46.4347C113.13 46.5182 113.301 46.56 113.489 46.56Z" fill="#372121"/>
<path d="M117.411 48.0054C117.172 48.0054 117.001 47.9732 116.897 47.909C116.8 47.8383 116.739 47.7452 116.713 47.6296C116.694 47.5139 116.684 47.3951 116.684 47.273V43.9101C116.684 43.7816 116.697 43.6627 116.723 43.5535C116.749 43.4443 116.81 43.3576 116.907 43.2934C117.01 43.2227 117.182 43.1874 117.421 43.1874C117.647 43.1874 117.809 43.2195 117.906 43.2837C118.009 43.3415 118.074 43.4122 118.1 43.4957C118.126 43.5728 118.139 43.6403 118.139 43.6981L118.022 43.7559C118.035 43.7302 118.067 43.6852 118.119 43.621C118.177 43.5503 118.255 43.4797 118.352 43.409C118.449 43.3319 118.565 43.2677 118.701 43.2163C118.843 43.1649 119.005 43.1392 119.186 43.1392C119.257 43.1392 119.335 43.1456 119.419 43.1585C119.509 43.1649 119.6 43.1842 119.69 43.2163C119.787 43.242 119.874 43.2805 119.952 43.3319C120.03 43.3769 120.091 43.4347 120.136 43.5054C120.188 43.576 120.214 43.6627 120.214 43.7655C120.214 44.0289 120.152 44.2537 120.03 44.44C119.907 44.6199 119.752 44.7099 119.564 44.7099C119.454 44.7099 119.377 44.7002 119.331 44.6809C119.286 44.6617 119.247 44.6424 119.215 44.6231C119.189 44.6039 119.157 44.5878 119.118 44.5749C119.079 44.5557 119.008 44.546 118.905 44.546C118.808 44.546 118.714 44.5589 118.623 44.5846C118.539 44.6103 118.459 44.652 118.381 44.7099C118.31 44.7612 118.252 44.8287 118.206 44.9122C118.168 44.9893 118.148 45.076 118.148 45.1724V47.2923C118.148 47.4143 118.135 47.5332 118.109 47.6488C118.09 47.758 118.029 47.8448 117.925 47.909C117.822 47.9732 117.65 48.0054 117.411 48.0054Z" fill="#372121"/>
<path d="M122.896 48.0921C122.443 48.0921 122.052 48.0182 121.723 47.8704C121.399 47.7227 121.134 47.53 120.927 47.2923C120.72 47.0482 120.565 46.7784 120.462 46.4829C120.365 46.1874 120.316 45.8919 120.316 45.5964C120.316 45.1146 120.426 44.6874 120.646 44.3148C120.866 43.9422 121.17 43.6499 121.558 43.4379C121.946 43.2195 122.392 43.1103 122.896 43.1103C123.271 43.1103 123.594 43.1713 123.866 43.2934C124.144 43.409 124.37 43.5632 124.545 43.7559C124.726 43.9422 124.858 44.1445 124.942 44.363C125.033 44.5814 125.078 44.7901 125.078 44.9893C125.078 45.3426 124.991 45.606 124.816 45.7794C124.648 45.9465 124.431 46.03 124.166 46.03H121.858C121.871 46.197 121.929 46.3383 122.033 46.454C122.143 46.5696 122.279 46.6595 122.44 46.7238C122.602 46.788 122.773 46.8201 122.954 46.8201C123.109 46.8201 123.245 46.8137 123.361 46.8009C123.478 46.7816 123.578 46.7591 123.662 46.7334C123.746 46.7013 123.824 46.6724 123.895 46.6467C123.966 46.6146 124.027 46.5889 124.079 46.5696C124.137 46.5503 124.192 46.5375 124.244 46.531C124.341 46.5246 124.428 46.5535 124.506 46.6178C124.59 46.6756 124.664 46.7655 124.729 46.8876C124.774 46.9582 124.803 47.0257 124.816 47.0899C124.835 47.1542 124.845 47.2184 124.845 47.2827C124.845 47.4368 124.764 47.5749 124.603 47.697C124.448 47.8191 124.224 47.9154 123.934 47.9861C123.649 48.0567 123.303 48.0921 122.896 48.0921ZM121.858 45.2398H123.391C123.494 45.2398 123.568 45.2238 123.614 45.1916C123.665 45.1531 123.691 45.0824 123.691 44.9797C123.691 44.864 123.656 44.7645 123.584 44.6809C123.513 44.591 123.416 44.5236 123.294 44.4786C123.177 44.4272 123.041 44.4015 122.886 44.4015C122.686 44.4015 122.508 44.44 122.353 44.5171C122.198 44.5942 122.075 44.697 121.984 44.8255C121.9 44.954 121.858 45.0921 121.858 45.2398Z" fill="#372121"/>
<path d="M130.133 48.0632C129.642 48.0632 129.225 47.9925 128.882 47.8512C128.54 47.7034 128.278 47.485 128.097 47.1959C127.922 46.9069 127.835 46.5503 127.835 46.1263C127.835 45.9015 127.877 45.6863 127.961 45.4807C128.045 45.2687 128.168 45.06 128.33 44.8544C128.491 44.6488 128.692 44.4465 128.931 44.2473C128.853 44.0739 128.782 43.9036 128.718 43.7366C128.659 43.5632 128.614 43.3961 128.582 43.2355C128.556 43.0685 128.543 42.9079 128.543 42.7537C128.543 42.3747 128.621 42.0567 128.776 41.7998C128.937 41.5364 129.167 41.3373 129.464 41.2024C129.768 41.0675 130.137 41 130.57 41C130.938 41 131.255 41.0642 131.52 41.1927C131.785 41.3212 131.989 41.5043 132.131 41.742C132.28 41.9797 132.354 42.2655 132.354 42.5996C132.354 42.7987 132.309 42.9882 132.218 43.1681C132.134 43.3415 132.015 43.5118 131.859 43.6788C131.704 43.8394 131.53 43.9968 131.336 44.151C131.142 44.3051 130.938 44.4561 130.725 44.6039C130.854 44.7773 130.983 44.9443 131.113 45.1049C131.249 45.2591 131.388 45.4036 131.53 45.5385C131.672 45.6734 131.811 45.7923 131.947 45.8951C132.083 45.7537 132.183 45.6188 132.247 45.4904C132.312 45.3555 132.357 45.2173 132.383 45.076C132.415 44.9475 132.493 44.8512 132.616 44.7869C132.739 44.7163 132.917 44.6809 133.149 44.6809C133.35 44.6809 133.492 44.7099 133.576 44.7677C133.666 44.8191 133.725 44.8833 133.75 44.9604C133.776 45.031 133.786 45.0985 133.78 45.1627C133.767 45.3876 133.705 45.6124 133.595 45.8373C133.485 46.0621 133.337 46.2869 133.149 46.5118C133.188 46.5246 133.224 46.5343 133.256 46.5407C133.295 46.5471 133.333 46.5535 133.372 46.56C133.418 46.56 133.469 46.56 133.527 46.56C133.754 46.56 133.922 46.6178 134.032 46.7334C134.142 46.8426 134.197 47.0096 134.197 47.2345C134.197 47.5171 134.148 47.7098 134.051 47.8126C133.954 47.9154 133.776 47.9668 133.518 47.9668C133.343 47.9668 133.165 47.954 132.984 47.9283C132.803 47.9026 132.622 47.8608 132.441 47.803C132.267 47.7388 132.092 47.6617 131.918 47.5717C131.73 47.6745 131.536 47.7645 131.336 47.8415C131.142 47.9122 130.945 47.9668 130.744 48.0054C130.544 48.0439 130.34 48.0632 130.133 48.0632ZM130.182 46.7816C130.279 46.7816 130.373 46.7719 130.463 46.7527C130.554 46.7334 130.631 46.7109 130.696 46.6852C130.618 46.6081 130.534 46.5246 130.444 46.4347C130.353 46.3383 130.263 46.2388 130.172 46.136C130.082 46.0332 129.991 45.9272 129.901 45.818C129.81 45.7088 129.723 45.5964 129.639 45.4807C129.581 45.545 129.532 45.606 129.493 45.6638C129.455 45.7152 129.422 45.7666 129.396 45.818C129.37 45.863 129.351 45.9111 129.338 45.9625C129.325 46.0139 129.319 46.0653 129.319 46.1167C129.319 46.258 129.351 46.3801 129.416 46.4829C129.487 46.5792 129.587 46.6531 129.716 46.7045C129.846 46.7559 130.001 46.7816 130.182 46.7816ZM130.085 43.4764C130.24 43.3672 130.376 43.2709 130.492 43.1874C130.609 43.0974 130.705 43.0171 130.783 42.9465C130.861 42.8758 130.919 42.8116 130.958 42.7537C130.996 42.6895 131.016 42.6317 131.016 42.5803C131.016 42.4454 130.971 42.3394 130.88 42.2623C130.796 42.1852 130.68 42.1467 130.531 42.1467C130.389 42.1467 130.269 42.166 130.172 42.2045C130.075 42.243 130.001 42.3009 129.949 42.3779C129.904 42.455 129.881 42.5514 129.881 42.667C129.881 42.7441 129.888 42.8244 129.901 42.9079C129.92 42.985 129.943 43.0717 129.968 43.1681C130.001 43.2645 130.04 43.3672 130.085 43.4764Z" fill="#372121"/>
<path d="M139.417 48.1017C139.075 48.1017 138.774 48.06 138.515 47.9764C138.263 47.8929 138.047 47.7934 137.866 47.6777C137.691 47.5557 137.552 47.4368 137.449 47.3212C137.345 47.2056 137.274 47.1188 137.235 47.061C137.125 46.9197 137.058 46.7976 137.032 46.6949C137.006 46.5857 137.019 46.4764 137.07 46.3672C137.129 46.258 137.226 46.1392 137.361 46.0107C137.497 45.8951 137.623 45.834 137.74 45.8276C137.862 45.8148 137.982 45.8437 138.098 45.9143C138.215 45.985 138.328 46.0846 138.438 46.2131C138.593 46.3994 138.745 46.531 138.894 46.6081C139.049 46.6788 139.21 46.7141 139.378 46.7141C139.592 46.7141 139.773 46.6884 139.922 46.637C140.07 46.5857 140.183 46.5054 140.261 46.3961C140.339 46.2805 140.377 46.136 140.377 45.9625C140.377 45.8212 140.322 45.7088 140.212 45.6253C140.109 45.5353 139.967 45.4582 139.786 45.394C139.611 45.3298 139.414 45.2687 139.194 45.2109C138.981 45.1467 138.768 45.0728 138.554 44.9893C138.406 44.9379 138.263 44.8737 138.128 44.7966C137.992 44.7195 137.862 44.6328 137.74 44.5364C137.617 44.44 137.51 44.3244 137.42 44.1895C137.336 44.0546 137.268 43.9004 137.216 43.727C137.171 43.5535 137.148 43.3544 137.148 43.1296C137.148 42.7505 137.242 42.4133 137.429 42.1178C137.617 41.8223 137.875 41.591 138.205 41.424C138.541 41.2505 138.926 41.1638 139.359 41.1638C139.65 41.1638 139.902 41.1895 140.115 41.2409C140.335 41.2923 140.52 41.3533 140.668 41.424C140.817 41.4946 140.933 41.5653 141.017 41.636C141.108 41.7002 141.169 41.7516 141.202 41.7901C141.383 41.9572 141.483 42.1017 141.502 42.2238C141.522 42.3394 141.454 42.5032 141.299 42.7152C141.137 42.94 140.975 43.0653 140.814 43.091C140.659 43.1167 140.481 43.0621 140.28 42.9272C140.203 42.8565 140.125 42.7923 140.048 42.7345C139.97 42.6767 139.876 42.6317 139.766 42.5996C139.663 42.561 139.524 42.5418 139.349 42.5418C139.246 42.5418 139.149 42.5578 139.058 42.5899C138.968 42.6156 138.89 42.6542 138.826 42.7056C138.761 42.757 138.709 42.8212 138.671 42.8983C138.632 42.969 138.612 43.0493 138.612 43.1392C138.612 43.2869 138.661 43.4058 138.758 43.4957C138.861 43.5857 138.994 43.6595 139.155 43.7173C139.324 43.7687 139.508 43.8201 139.708 43.8715C139.915 43.9165 140.125 43.9711 140.339 44.0353C140.532 44.0996 140.72 44.1799 140.901 44.2762C141.082 44.3662 141.244 44.4818 141.386 44.6231C141.528 44.7645 141.641 44.9411 141.725 45.1531C141.816 45.3651 141.861 45.6253 141.861 45.9336C141.861 46.3191 141.787 46.6499 141.638 46.9261C141.489 47.2024 141.292 47.4272 141.046 47.6006C140.801 47.7741 140.536 47.8994 140.251 47.9764C139.967 48.06 139.689 48.1017 139.417 48.1017Z" fill="#372121"/>
<path d="M143.169 48.0054C142.936 48.0054 142.768 47.9732 142.665 47.909C142.561 47.8383 142.497 47.7484 142.471 47.6392C142.452 47.5236 142.442 47.4015 142.442 47.273V41.7227C142.442 41.5942 142.455 41.4754 142.481 41.3662C142.507 41.257 142.571 41.1702 142.675 41.106C142.778 41.0353 142.946 41 143.179 41C143.418 41 143.586 41.0353 143.683 41.106C143.787 41.1767 143.848 41.2666 143.867 41.3758C143.893 41.485 143.906 41.6039 143.906 41.7323V43.6981C144.023 43.576 144.171 43.4604 144.352 43.3512C144.54 43.242 144.76 43.1874 145.012 43.1874C145.413 43.1874 145.771 43.2901 146.088 43.4957C146.411 43.6949 146.667 43.9711 146.854 44.3244C147.048 44.6777 147.145 45.0824 147.145 45.5385V47.2827C147.145 47.4111 147.132 47.53 147.106 47.6392C147.081 47.7484 147.019 47.8383 146.922 47.909C146.825 47.9732 146.654 48.0054 146.408 48.0054C146.182 48.0054 146.014 47.9732 145.904 47.909C145.8 47.8383 145.736 47.7484 145.71 47.6392C145.691 47.5236 145.681 47.4015 145.681 47.273V45.5289C145.681 45.3426 145.649 45.1852 145.584 45.0567C145.519 44.9218 145.422 44.8158 145.293 44.7388C145.17 44.6617 145.018 44.6231 144.837 44.6231C144.598 44.6231 144.388 44.697 144.207 44.8448C144.032 44.9861 143.932 45.1595 143.906 45.3651V47.2827C143.906 47.4111 143.893 47.53 143.867 47.6392C143.842 47.7484 143.777 47.8383 143.673 47.909C143.576 47.9732 143.408 48.0054 143.169 48.0054Z" fill="#372121"/>
<path d="M150.159 48.0824C149.855 48.0824 149.551 48.0246 149.247 47.909C148.95 47.7869 148.678 47.6167 148.433 47.3983C148.187 47.1799 147.993 46.9197 147.851 46.6178C147.708 46.3094 147.637 45.969 147.637 45.5964C147.637 45.2495 147.702 44.9283 147.831 44.6328C147.961 44.3308 148.142 44.0642 148.374 43.833C148.607 43.6017 148.872 43.4218 149.17 43.2934C149.473 43.1585 149.797 43.091 150.139 43.091C150.605 43.091 151.025 43.2034 151.4 43.4283C151.781 43.6467 152.085 43.9454 152.312 44.3244C152.538 44.7034 152.651 45.1242 152.651 45.5867C152.651 45.9786 152.577 46.3287 152.428 46.637C152.286 46.939 152.092 47.1991 151.846 47.4176C151.607 47.636 151.339 47.803 151.041 47.9186C150.75 48.0278 150.456 48.0824 150.159 48.0824ZM150.139 46.6274C150.294 46.6274 150.453 46.5889 150.614 46.5118C150.776 46.4347 150.912 46.3191 151.022 46.1649C151.132 46.0107 151.187 45.8148 151.187 45.5771C151.187 45.3715 151.141 45.1916 151.051 45.0375C150.96 44.8833 150.834 44.7645 150.673 44.6809C150.518 44.591 150.336 44.546 150.13 44.546C149.936 44.546 149.761 44.591 149.606 44.6809C149.457 44.7709 149.334 44.8961 149.237 45.0567C149.147 45.2109 149.102 45.3876 149.102 45.5867C149.102 45.818 149.153 46.0139 149.257 46.1745C149.367 46.3287 149.503 46.4443 149.664 46.5214C149.826 46.5921 149.984 46.6274 150.139 46.6274Z" fill="#372121"/>
<path d="M155.789 47.9186C155.472 47.9186 155.191 47.8576 154.945 47.7355C154.706 47.6071 154.506 47.4368 154.344 47.2248C154.189 47.0064 154.069 46.7559 153.985 46.4732C153.908 46.1906 153.872 45.8854 153.879 45.5578C153.879 45.243 153.921 44.9443 154.005 44.6617C154.089 44.3726 154.208 44.1188 154.363 43.9004C154.525 43.6756 154.722 43.5021 154.955 43.3801C155.194 43.2516 155.472 43.1874 155.789 43.1874C156.073 43.1874 156.348 43.2516 156.613 43.3801C156.885 43.5086 157.124 43.6852 157.331 43.9101C157.538 44.1285 157.699 44.3822 157.816 44.6713C157.939 44.9604 158 45.2655 158 45.5867C158 45.9079 157.939 46.2131 157.816 46.5021C157.699 46.7848 157.538 47.0321 157.331 47.2441C157.124 47.4561 156.888 47.6231 156.623 47.7452C156.358 47.8608 156.08 47.9186 155.789 47.9186ZM153.917 50C153.685 50 153.517 49.9647 153.413 49.894C153.316 49.8298 153.255 49.743 153.229 49.6338C153.209 49.531 153.2 49.4186 153.2 49.2966V43.9101C153.2 43.7816 153.209 43.666 153.229 43.5632C153.248 43.454 153.306 43.364 153.403 43.2934C153.507 43.2227 153.675 43.1874 153.908 43.1874C154.108 43.1874 154.266 43.2163 154.383 43.2741C154.506 43.3319 154.593 43.4218 154.645 43.5439V49.2869C154.651 49.409 154.641 49.5246 154.616 49.6338C154.59 49.743 154.525 49.8298 154.422 49.894C154.325 49.9647 154.157 50 153.917 50ZM155.585 46.56C155.766 46.56 155.928 46.5182 156.07 46.4347C156.212 46.3448 156.326 46.2259 156.41 46.0782C156.5 45.9304 156.545 45.7666 156.545 45.5867C156.545 45.4004 156.503 45.2366 156.419 45.0953C156.335 44.9475 156.222 44.8319 156.08 44.7484C155.938 44.6649 155.776 44.6231 155.595 44.6231C155.42 44.6231 155.259 44.6681 155.11 44.758C154.968 44.8415 154.855 44.9572 154.771 45.1049C154.693 45.2463 154.654 45.4069 154.654 45.5867C154.654 45.7666 154.696 45.9304 154.78 46.0782C154.864 46.2259 154.978 46.3448 155.12 46.4347C155.262 46.5182 155.417 46.56 155.585 46.56Z" fill="#372121"/>
<path d="M134.202 1.97252C134.183 1.9851 134.163 1.99979 134.145 2.01317C133.45 2.66695 133.582 3.81087 134.019 4.61268C134.382 5.36254 135.258 6.05874 136.092 5.73792C136.212 5.68982 136.317 5.60823 136.402 5.51192C137.083 4.63235 136.767 3.29516 136.051 2.48324C135.634 1.92839 134.8 1.57295 134.202 1.97252ZM130.884 4.18003C130.402 4.51144 130.358 5.2744 130.598 5.8083C131.064 6.87281 132.268 7.79042 133.432 7.46697C133.536 7.42894 133.63 7.37015 133.712 7.29633C134.29 6.7595 134.069 5.8241 133.641 5.23144C133.092 4.43726 132.075 3.76812 131.118 4.06689C131.03 4.09515 130.952 4.13314 130.884 4.18003ZM138.152 3.34447C137.338 3.94718 137.332 5.20086 137.786 6.07269C138.061 6.73509 138.883 7.32692 139.565 6.95199C140.463 6.35112 140.423 4.94708 139.883 4.06708C139.565 3.45886 138.785 2.97765 138.152 3.34447ZM130.856 8.35942C130.493 8.59073 130.285 9.04498 130.416 9.50079C130.768 10.7204 132.245 11.5965 133.425 11.1344C133.909 10.9301 134.064 10.3377 133.899 9.8531C133.544 8.81819 132.399 8.09167 131.343 8.20424C131.164 8.21291 130.997 8.26862 130.856 8.35942ZM135.854 7.71075C135.147 8.17185 134.673 9.00968 134.579 9.86046C134.508 10.8263 134.595 11.8393 134.971 12.7557C135.162 13.4664 136.042 13.8562 136.65 13.4685C137.391 13.0167 137.677 12.0933 138.374 11.5853C138.924 11.0897 139.692 11.0627 140.386 10.9209C140.992 10.8236 141.589 10.3225 141.485 9.64282C141.323 8.98723 140.672 8.59883 140.131 8.27435C139.156 7.81107 138.122 7.32934 137.038 7.34823C136.599 7.35045 136.199 7.48549 135.854 7.71075Z" fill="#372121"/>
<path d="M66.8944 27.1485C71.9114 40.3433 59.6518 61.3147 34.2302 53.1764C20.7029 48.8477 -1.89453 58.6082 0.126921 39.9557C1.94588 23.1616 15.1207 17.5377 21.6245 14.9828C28.1262 12.4297 32.3989 -1.25692 45.6726 0.0934739C62.7986 1.83932 61.8791 13.9553 66.8944 27.1485Z" fill="#372121"/>
<mask id="mask0_5_2322" style="mask-type:alpha" maskUnits="userSpaceOnUse" x="0" y="0" width="68" height="55">
<path d="M66.8944 27.1485C71.9114 40.3433 59.6518 61.3147 34.2302 53.1764C20.7029 48.8477 -1.89453 58.6082 0.126921 39.9557C1.94588 23.1616 15.1207 17.5377 21.6245 14.9828C28.1262 12.4297 32.3989 -1.25692 45.6726 0.0934739C62.7986 1.83932 61.8791 13.9553 66.8944 27.1485Z" fill="#17235B"/>
</mask>
<g mask="url(#mask0_5_2322)">
<path d="M35.0922 16.3384C34.7528 16.4341 34.0247 17.4053 34.6143 17.8351C34.8441 18.003 34.8607 19.6315 36.1814 20.2039C39.2682 21.54 42.1013 20.6191 43.0298 21.3468C43.4259 21.6556 41.5156 27.9111 42.2054 30.9802C43.1338 35.1233 44.7614 41.791 44.5133 43.6506C43.3602 47.803 43.778 51.0599 42.948 53.0296C42.731 53.5421 40.2627 53.6417 40.0965 54.0243C39.6348 55.0929 39.998 55.2338 40.4725 55.2338C41.7714 55.2338 43.7324 55.2338 45.0935 55.2338C46.4547 55.2338 48.3773 42.7225 48.3773 42.7225C48.3773 42.7225 55.1657 48.8518 56.0195 47.2829C57.6288 43.7299 60.5349 42.069 60.8887 42.0563C60.8248 42.1626 56.7511 44.4665 56.3294 48.2616C55.8405 52.6486 61.3483 52.1432 61.3483 52.1432C61.3483 52.1432 58.8177 52.2858 57.0154 52.3888C55.213 52.4917 53.3027 54.9761 55.4061 55.0913C57.5116 55.2052 68.1545 55.344 70.1359 55.0913C72.1152 54.8386 73.126 54.1703 71.8271 52.5385C72.6315 52.2335 75.7055 52.0491 76.9077 49.1842C78.4492 45.5157 76.2819 41.5151 76.2819 41.5151C76.2819 41.5151 76.6779 45.6675 75.2093 47.9659C74.2207 49.5184 73.0237 49.4968 71.9089 49.4357C73.7241 37.5959 55.3805 26.4839 54.2513 23.7611C52.1479 18.6932 52.396 12.8132 50.4546 12.407C50.6461 10.0761 47.4024 6.80664 47.4024 6.80664C47.4024 6.80664 47.1125 9.41379 46.7403 10.9376C45.3173 10.5765 43.0899 11.5278 42.2851 12.0716C41.4807 12.6149 41.8946 13.9147 40.2035 14.5884C39.0857 15.0327 36.4295 15.9574 35.0922 16.3384Z" fill="white"/>
<path d="M21.0646 36.592C23.3871 35.5411 26.6363 29.0435 27.1014 28.5182C27.5648 27.993 27.4991 26.2216 28.0299 26.09C28.5606 25.9583 28.5606 25.4327 28.4933 25.1062C28.4276 24.7775 28.4276 24.516 28.5606 24.3839C28.6936 24.2523 29.024 23.4651 28.5606 23.0715C28.0955 22.6779 27.3657 23.3335 26.9023 24.516C26.4372 25.6968 26.835 25.8934 25.5761 27.0742C24.3156 28.2567 20.7342 31.2102 20.7342 31.2102C20.7342 31.2102 20.7342 31.2102 20.6012 30.685C20.4682 30.1597 20.7999 29.5042 21.3328 28.7153C21.8635 27.928 21.132 27.0742 21.0646 26.8122C20.999 26.5502 20.0048 26.09 20.1361 25.8284C20.2691 25.5647 20.0048 23.9076 20.0048 23.9076C20.0048 23.9076 19.142 25.6318 19.0086 25.4331C18.8773 25.2365 16.1571 25.6318 16.1571 25.6318C16.1571 25.6318 14.8309 23.4655 13.968 23.9907C13.1069 24.516 13.7033 27.4028 14.101 29.2409C14.4988 31.079 13.769 33.1137 12.5084 34.8214C11.2495 36.5274 8.72838 34.7547 5.67779 39.3493C2.62551 43.9439 3.82042 47.7517 3.48876 49.5893C3.15667 51.4274 -0.756315 50.2445 -3.74125 50.1795C-6.72618 50.1146 -7.65465 51.624 -7.38992 52.4108C-7.12349 53.198 -2.74712 53.3967 -2.2816 53.0588C-1.81822 52.7213 -2.2816 52.3458 -2.2816 52.3458L3.75349 52.6078C3.75349 52.6078 6.87143 53.0681 10.0546 53.0592C13.2378 53.0504 13.1726 52.5428 13.1726 52.5428C13.1726 52.5428 14.8965 52.5428 15.4933 52.4779C16.0919 52.4112 15.8254 51.559 15.6263 51.0984C15.4277 50.6381 13.5703 50.9667 13.5703 50.9667V50.4415C13.5703 50.4415 15.163 49.5227 15.6937 48.6705C16.2227 47.8166 15.6263 44.7311 16.0914 45.1264C16.5548 45.52 18.6108 52.9364 18.8095 53.0014C19.0082 53.0681 21.3963 53.198 21.3306 52.5428C21.265 51.8856 20.4021 51.624 19.6723 50.9667C18.9425 50.3116 19.4737 42.6964 20.0044 42.1058C20.5351 41.5152 21.0646 36.592 21.0646 36.592Z" fill="white"/>
<path d="M20.8692 50.4934C18.0761 48.7603 18.2112 51.7733 19.5775 52.5985C20.9438 53.4237 21.119 51.8151 21.4528 52.474C21.7866 53.1347 22.8285 54.4564 22.8285 54.4564C22.8285 54.4564 23.6222 54.2488 23.956 54.6353C24.2881 55.0217 27.583 54.2488 27.791 54.3319C28.0007 54.415 28.6265 53.6295 28.6265 53.6295C28.6265 53.6295 28.6265 54.2488 29.0004 54.4564C29.3764 54.6623 32.337 54.6353 32.337 54.6353C32.337 54.6353 31.8775 54.3733 32.8371 54.5792C33.7967 54.785 34.7563 54.3733 34.7563 53.9599C34.7563 53.5481 33.8789 53.0933 33.6287 52.4344C33.3789 51.7737 33.9207 50.1234 33.9207 50.1234C37.7152 47.0686 36.6316 43.1077 36.6316 43.1077L37.0911 42.4884C38.049 42.8187 39.3424 41.3747 39.6762 40.7554C40.0082 40.136 39.842 39.6416 38.8006 38.114C37.757 36.5885 35.9635 36.0507 35.7977 35.6803C35.6319 35.3082 34.2545 34.9778 34.2545 34.9778C34.2545 34.9778 33.7673 32.1433 32.2953 30.2732C28.4586 25.404 31.6694 34.2362 31.6694 34.2362C31.6694 34.2362 29.96 28.9953 29.0422 29.0367C28.1244 29.078 29.084 31.2646 29.292 32.9145C29.5017 34.5665 31.0432 35.9692 31.4192 36.9172C31.7952 37.8668 30.5436 39.5998 30.5436 39.5998C30.5436 39.5998 27.4167 37.4947 23.8298 41.7556C20.2434 46.0161 20.8692 50.4934 20.8692 50.4934Z" fill="white"/>
</g>
</g>
</g>
<defs>
<clipPath id="clip0_5_2322">
<rect width="168" height="55" fill="white"/>
</clipPath>
<clipPath id="clip1_5_2322">
<rect width="168" height="55" fill="white"/>
</clipPath>
</defs>
</svg>
